# Blender v2.78 (sub 0) OBJ File: 'low_poly_tree.blend'
# www.blender.org
mtllib tree02.mtl
o Cylinder
v 0.000000 -0.006800 -0.300000
v 0.000000 1.993200 -0.111729
v 0.259808 -0.006800 -0.150000
v 0.096760 1.993200 -0.055865
v 0.259808 -0.006800 0.150000
v 0.096760 1.993200 0.055865
v -0.000000 -0.006800 0.300000
v -0.000000 1.993200 0.111729
v -0.259808 -0.006800 0.150000
v -0.096760 1.993200 0.055865
v -0.259808 -0.006800 -0.150000
v -0.096760 1.993200 -0.055865
vn 0.4983 0.0813 -0.8632
vn 0.9967 0.0813 0.0000
vn 0.4983 0.0813 0.8632
vn -0.4983 0.0813 0.8632
vn 0.0000 1.0000 0.0000
vn -0.9967 0.0813 0.0000
vn -0.4983 0.0813 -0.8632
vn 0.0000 -1.0000 0.0000
usemtl trunk
s off
f 1//1 2//1 4//1 3//1
f 3//2 4//2 6//2 5//2
f 5//3 6//3 8//3 7//3
f 7//4 8//4 10//4 9//4
f 4//5 2//5 12//5 10//5 8//5 6//5
f 9//6 10//6 12//6 11//6
f 11//7 12//7 2//7 1//7
f 1//8 3//8 5//8 7//8 9//8 11//8
o Icosphere.001
v -0.235241 1.887265 -0.724007
v 0.003618 3.111794 0.892291
v -0.584116 2.949004 -0.796989
v 0.521546 3.111792 -0.724008
v 0.849739 3.111792 0.272290
v -0.178166 3.648728 -0.129444
v 0.178166 1.527273 0.129444
v -0.003618 2.064208 0.892291
v 0.847501 2.064210 0.279175
v -0.849739 2.064210 0.272290
v -0.704983 1.856599 -0.246228
v 0.527408 2.064209 -0.719748
v 1.043889 2.641590 -0.000000
v 0.322581 2.641590 0.992798
v -0.889814 2.944724 0.520931
v -1.043889 2.534411 -0.000000
v 0.322581 2.641590 -0.992798
v 0.338902 3.545651 0.246226
vn -0.2271 -0.9318 -0.2831
vn -0.6779 -0.2698 -0.6838
vn 0.8090 0.0090 0.5878
vn -0.3543 0.0375 0.9344
vn -0.2571 -0.1501 -0.9547
vn 0.8090 0.0090 -0.5878
vn 0.4741 0.5971 0.6470
vn -0.3510 0.8017 0.4838
vn -0.7690 0.6144 -0.1764
vn -0.0574 0.7064 -0.7055
vn 0.6391 0.7398 -0.2105
vn 0.3980 0.8631 -0.3110
vn -0.1796 0.8573 0.4825
vn 0.8240 0.4974 -0.2714
vn 0.8090 -0.0063 -0.5878
vn -0.0167 0.5015 -0.8650
vn -0.8170 0.5452 -0.1877
vn -0.3743 -0.0560 0.9256
vn 0.5128 0.4974 0.6998
vn 0.8090 -0.0063 0.5878
vn 0.0972 -0.3971 -0.9126
vn -0.8019 -0.1959 -0.5645
vn -0.9031 -0.4212 -0.0835
vn -0.9093 -0.1509 0.3878
vn -0.5728 -0.2468 0.7817
vn 0.5287 -0.4264 0.7339
vn 0.8614 -0.4264 -0.2760
vn 0.2029 -0.8632 -0.4624
vn -0.4249 -0.8751 0.2318
vn -0.3525 -0.8027 0.4810
vn 0.6399 -0.7406 -0.2051
vn 0.4227 -0.6906 0.5868
usemtl crown.001
s off
f 19//9 23//9 13//9
f 13//10 23//10 15//10
f 21//11 25//11 26//11
f 20//12 26//12 27//12
f 13//13 15//13 29//13
f 24//14 29//14 25//14
f 14//15 17//15 30//15
f 27//16 14//16 18//16
f 15//17 27//17 18//17
f 16//18 15//18 18//18
f 17//19 16//19 30//19
f 30//20 16//20 18//20
f 18//21 14//21 30//21
f 25//22 16//22 17//22
f 25//23 29//23 16//23
f 29//24 15//24 16//24
f 28//25 27//25 15//25
f 27//26 26//26 14//26
f 26//27 17//27 14//27
f 26//28 25//28 17//28
f 24//29 13//29 29//29
f 15//30 23//30 28//30
f 23//31 22//31 28//31
f 28//32 22//32 27//32
f 22//33 20//33 27//33
f 20//34 21//34 26//34
f 21//35 24//35 25//35
f 19//36 13//36 24//36
f 23//37 19//37 22//37
f 19//38 20//38 22//38
f 21//39 19//39 24//39
f 19//40 21//40 20//40
