# Blender v2.79 (sub 0) OBJ File: ''
# www.blender.org
mtllib Walls.mtl
o Cube
v 0.499999 1.000000 1.000000
v 0.500000 1.000000 -1.000000
v 0.500000 -1.000000 1.000000
v 0.500000 -1.000000 -1.000000
v 0.000000 -1.000000 -1.000000
v 0.000000 -1.000000 1.000000
v 0.000000 1.000000 -1.000000
v -0.000001 1.000000 1.000000
vn -1.0000 -0.0000 -0.0000
vn 0.0000 0.0000 -1.0000
vn 1.0000 -0.0000 0.0000
vn 0.0000 -0.0000 1.0000
vn 0.0000 1.0000 0.0000
vn 0.0000 -1.0000 0.0000
usemtl Material
s off
f 6//1 8//1 7//1
f 4//2 5//2 7//2
f 3//3 4//3 2//3
f 3//3 2//3 1//3
f 6//1 7//1 5//1
f 4//2 7//2 2//2
f 1//4 6//4 3//4
f 7//5 1//5 2//5
f 4//6 6//6 5//6
f 1//4 8//4 6//4
f 7//5 8//5 1//5
f 4//6 3//6 6//6
